Coordinates
version=1
nRows=13
nColumns=40
inDegrees=yes

Units are S.I. units (second, meters, Newtons, ...)
Angles are in degrees.

endheader
time	pelvis_tilt	pelvis_list	pelvis_rotation	pelvis_tx	pelvis_ty	pelvis_tz	hip_flexion_r	hip_adduction_r	hip_rotation_r	knee_angle_r	knee_angle_r_beta	ankle_angle_r	subtalar_angle_r	mtp_angle_r	hip_flexion_l	hip_adduction_l	hip_rotation_l	knee_angle_l	knee_angle_l_beta	ankle_angle_l	subtalar_angle_l	mtp_angle_l	lumbar_extension	lumbar_bending	lumbar_rotation	arm_flex_r	arm_add_r	arm_rot_r	elbow_flex_r	pro_sup_r	wrist_flex_r	wrist_dev_r	arm_flex_l	arm_add_l	arm_rot_l	elbow_flex_l	pro_sup_l	wrist_flex_l	wrist_dev_l
     17.66000000	     -4.95388477	     -3.01677827	     -4.14581642	      1.02530326	      0.92771009	      0.44004487	     24.50778346	     -1.94288313	    -11.43295481	     13.38308229	     13.38308229	      3.42599654	      6.83667397	      4.80118734	      5.78692130	     -5.67200095	    -11.37814927	     15.92804633	     15.92804633	     14.64304784	    -12.50571237	     -3.24961060	    -10.45898266	      3.59562537	      2.60029850	      3.02508797	    -15.32014714	    -10.53619066	     22.54843395	     47.73914683	      0.00000000	      0.00000000	     11.30213246	    -16.00719193	      3.44531466	     61.61699287	     46.17440282	      0.00000000	      0.00000000
     17.67271429	     -4.85290712	     -3.16063416	     -4.25931974	      1.02776286	      0.92751434	      0.44281694	     23.42855995	     -1.43834576	    -11.94408193	     12.12911083	     12.12911083	      2.48848091	      7.41459955	      3.69070472	      4.68018384	     -5.88712255	    -11.55815981	     15.13706402	     15.13706402	     14.98361899	    -11.97413120	     -2.70155891	    -10.45795838	      3.84696084	      2.66224256	      2.93834784	    -14.99766372	    -10.78134823	     23.19832815	     47.68416731	      0.00000000	      0.00000000	     10.97805325	    -15.43636043	      3.09319689	     61.30902003	     46.23691514	      0.00000000	      0.00000000
     17.68542857	     -4.92394942	     -3.29642996	     -4.27493151	      1.02994817	      0.92661486	      0.44567191	     23.15542529	     -1.09247307	    -12.26857049	     12.35388814	     12.35388814	      2.36457045	      7.17995480	      3.55289918	      4.15196168	     -6.17923819	    -11.52669863	     15.01674893	     15.01674893	     15.28800143	    -12.01238731	     -2.69249185	    -10.20954323	      4.06327650	      2.71796646	      3.06741614	    -14.75875359	    -10.76115711	     23.29787222	     47.67594603	      0.00000000	      0.00000000	     10.69861417	    -15.13973535	      3.19196664	     61.22153288	     46.22810684	      0.00000000	      0.00000000
     17.69814286	     -4.81155135	     -3.47396308	     -4.27905043	      1.03241197	      0.92589077	      0.44880943	     22.55390404	     -0.62665878	    -12.13049859	     12.42359136	     12.42359136	      0.84114274	      5.98047469	     -0.88329695	      3.48556259	     -6.58543382	    -11.75814777	     15.13788285	     15.13788285	     16.40341502	    -11.24842364	     -1.10993097	    -10.15447711	      4.31904081	      2.71347636	      2.99306060	    -14.62260817	    -10.65702348	     24.30225158	     47.55229567	      0.00000000	      0.00000000	     10.53508775	    -14.66361361	      2.47207488	     60.61768966	     46.32452130	      0.00000000	      0.00000000
     17.71085714	     -4.74963348	     -3.71860984	     -4.21198921	      1.03477263	      0.92515329	      0.45194336	     22.25090945	     -0.25409738	    -12.39194660	     13.20317884	     13.20317884	      0.96444216	      5.51480738	     -1.28216654	      2.90834345	     -7.04220265	    -11.66034815	     15.20360057	     15.20360057	     16.69413369	    -11.29777483	     -1.04519105	    -10.04924964	      4.64932014	      2.71107354	      3.22170790	    -14.42882746	    -10.61063979	     24.47037850	     47.53746059	      0.00000000	      0.00000000	     10.19115741	    -14.38555752	      2.56703331	     60.43472224	     46.31533959	      0.00000000	      0.00000000
     17.72357143	     -4.75433996	     -3.82103955	     -4.13855333	      1.03692072	      0.92413783	      0.45521545	     22.34395796	     -0.03802975	    -12.17051323	     14.54127839	     14.54127839	      1.06943358	      4.26838755	     -2.47155862	      2.70555822	     -7.44365360	    -11.71553342	     15.81542982	     15.81542982	     17.25318934	    -11.25956213	     -0.63977438	     -9.82645785	      4.82256180	      2.51611430	      3.53876211	    -14.14301402	    -10.46667891	     24.98557454	     47.48846280	      0.00000000	      0.00000000	      9.87928724	    -14.20701901	      2.35108256	     59.91126453	     46.33244366	      0.00000000	      0.00000000
     17.73628571	     -4.65944566	     -4.14714300	     -4.02381073	      1.03920117	      0.92355477	      0.45872374	     21.93345904	      0.51415566	    -11.91276002	     15.10724853	     15.10724853	      0.58018171	      2.96071195	     -4.99262451	      2.52761859	     -8.16693560	    -11.70619524	     16.77721229	     16.77721229	     18.49278188	    -10.66297948	      1.30968745	     -9.80165520	      5.19614730	      2.65893010	      3.47558390	    -14.11211705	     -9.57400001	     26.15377000	     47.28949246	      0.00000000	      0.00000000	      9.61551163	    -13.51621447	      1.25350554	     59.18225287	     46.44496749	      0.00000000	      0.00000000
     17.74900000	     -4.47010204	     -4.41344599	     -3.89982766	      1.04135851	      0.92315847	      0.46219720	     21.66988808	      0.87436146	    -11.91363059	     16.16582232	     16.16582232	      1.11436415	      2.39867358	     -5.36669642	      2.32415765	     -8.78636276	    -11.47046014	     17.74290880	     17.74290880	     18.61846761	    -11.08755219	      1.26085233	     -9.86475218	      5.50694452	      2.68837284	      3.91078481	    -13.95577509	     -9.47899510	     26.44813692	     47.26678651	      0.00000000	      0.00000000	      9.24886246	    -13.32703468	      1.27233458	     58.87075327	     46.43913514	      0.00000000	      0.00000000
     17.76171429	     -4.47562471	     -4.60957349	     -3.73198069	      1.04321443	      0.92254196	      0.46570496	     21.71579051	      1.19484694	    -11.69770144	     17.30070790	     17.30070790	      1.75477797	      1.48279126	     -5.66343248	      2.73883546	     -9.43646108	    -11.10478379	     19.40014961	     19.40014961	     18.74794462	    -11.65758371	      1.16370282	     -9.70737818	      5.74581306	      2.59842944	      4.37614095	    -13.75160230	     -9.31764309	     26.95555507	     47.22622625	      0.00000000	      0.00000000	      8.86991014	    -13.16390722	      1.07211437	     58.31152642	     46.44886529	      0.00000000	      0.00000000
     17.77442857	     -4.46555533	     -4.78047633	     -3.59710765	      1.04496640	      0.92225097	      0.46933491	     21.68045712	      1.56705478	    -11.26334312	     18.23136393	     18.23136393	      2.44161911	      0.35904110	     -5.50775242	      3.32759143	    -10.11286533	    -10.79246390	     21.39359803	     21.39359803	     18.75898385	    -12.25568120	      1.26240250	     -9.56827835	      5.93854787	      2.54019780	      4.70545303	    -13.60215690	     -8.86259884	     27.88687061	     47.13028514	      0.00000000	      0.00000000	      8.48810037	    -12.75119976	      0.29515409	     57.35419664	     46.50505327	      0.00000000	      0.00000000
     17.78714286	     -4.13529862	     -4.93574413	     -3.42653983	      1.04681052	      0.92266775	      0.47288994	     21.12924195	      1.85548489	    -11.20510150	     18.83924623	     18.83924623	      3.13091843	      0.07367434	     -5.67119359	      3.67110349	    -10.74778570	    -10.36208651	     23.53676703	     23.53676703	     18.44273687	    -13.04911247	      1.06567235	     -9.84545045	      6.08712699	      2.68135599	      5.23684806	    -13.49279371	     -8.72593953	     28.33650556	     47.09939629	      0.00000000	      0.00000000	      8.16994214	    -12.54896198	      0.13283985	     56.92232780	     46.51198850	      0.00000000	      0.00000000
     17.79985714	     -4.26972769	     -5.06157044	     -3.17890766	      1.04811487	      0.92242755	      0.47635070	     21.16572096	      2.14816519	    -11.03016672	     19.50162126	     19.50162126	      3.87105491	     -0.62569207	     -5.33553251	      5.07843994	    -11.43951763	     -9.58843640	     26.55124623	     26.55124623	     17.90595550	    -14.18197557	      0.71292057	     -9.54892664	      6.24874228	      2.47954769	      5.61555611	    -13.38482958	     -8.26234788	     29.46188994	     47.00117660	      0.00000000	      0.00000000	      7.76039078	    -12.21060202	     -0.67861321	     55.78082889	     46.56651551	      0.00000000	      0.00000000
     17.81257143	     -4.13311909	     -5.18739904	     -2.93339867	      1.04947449	      0.92287213	      0.47976523	     20.78391827	      2.42413594	    -11.02700273	     19.96275240	     19.96275240	      4.94052980	     -0.84630968	     -4.13658713	      6.23147331	    -12.08696947	     -8.81773657	     29.58519429	     29.58519429	     17.03865449	    -15.31880164	      0.33719778	     -9.62739625	      6.38552113	      2.60187983	      5.49480914	    -13.68847089	     -6.54371946	     31.81169094	     46.72339656	      0.00000000	      0.00000000	      7.82415492	    -11.36112735	     -2.77068562	     54.09396022	     46.72929682	      0.00000000	      0.00000000
